<mxfile host="app.diagrams.net" modified="2024-05-10T17:40:28.021Z" agent="Mozilla/5.0 (Windows NT 10.0; Win64; x64) AppleWebKit/537.36 (KHTML, like Gecko) Chrome/124.0.0.0 Safari/537.36" version="22.1.21" etag="W9uirr_fgsoUAmyimx4_" type="github">
  <diagram name="Trang-1" id="Tm7ZE3XeWfhGieOHm2Hc">
    <mxGraphModel>
      <root>
        <mxCell id="0" />
        <mxCell id="1" parent="0" />
      </root>
    </mxGraphModel>
  </diagram>
</mxfile>
